<svg xmlns="http://www.w3.org/2000/svg" version="1.1" xmlns:xlink="http://www.w3.org/1999/xlink" xmlns:svgjs="http://svgjs.dev/svgjs" width="2000" height="1765" viewBox="0 0 2000 1765"><g transform="matrix(1,0,0,1,-1.6180649786222148,-2.8467741935484128)"><svg viewBox="0 0 281 248" data-background-color="#ffffff" preserveAspectRatio="xMidYMid meet" height="1765" width="2000" xmlns="http://www.w3.org/2000/svg" xmlns:xlink="http://www.w3.org/1999/xlink"><g id="tight-bounds" transform="matrix(1,0,0,1,0.22733812949641674,0.4000000000000057)"><svg viewBox="0 0 280.54532374100717 247.2" height="247.2" width="280.54532374100717"><g><svg viewBox="0 0 280.54532374100717 247.2" height="247.2" width="280.54532374100717"><g><svg viewBox="0 0 280.54532374100717 247.2" height="247.2" width="280.54532374100717"><g id="textblocktransform"><svg viewBox="0 0 280.54532374100717 247.2" height="247.2" width="280.54532374100717" id="textblock"><g><svg viewBox="0 0 280.54532374100717 247.2" height="247.2" width="280.54532374100717"><g transform="matrix(1,0,0,1,0,0)"><svg width="280.54532374100717" viewBox="0.5 -27.8 31.549999999999997 27.8" height="247.2" data-palette-color="#ff9900"><g class="wordmark-text-0" data-fill-palette-color="primary" id="text-0"><path d="M23.8 0L8.9 0 2.6-19.6 0.5-19.6 0.5-27.8 15.95-27.8 15.95-19.6 13.85-19.6 16.5-9.7 17-9.7 19.65-19.6 17.55-19.6 17.55-27.8 32.05-27.8 32.05-19.6 29.95-19.6 23.8 0Z" fill="#ff9900" data-fill-palette-color="primary"></path></g></svg></g></svg></g></svg></g></svg></g></svg></g><defs></defs></svg><rect width="280.54532374100717" height="247.2" fill="none" stroke="none" visibility="hidden"></rect></g></svg></g></svg>