<svg xmlns="http://www.w3.org/2000/svg" version="1.1" xmlns:xlink="http://www.w3.org/1999/xlink" xmlns:svgjs="http://svgjs.dev/svgjs" width="2000" height="808" viewBox="0 0 2000 808"><g transform="matrix(1,0,0,1,-1.2121212121212466,-2.145143735587965)"><svg viewBox="0 0 396 160" data-background-color="#ffffff" preserveAspectRatio="xMidYMid meet" height="808" width="2000" xmlns="http://www.w3.org/2000/svg" xmlns:xlink="http://www.w3.org/1999/xlink"><g id="tight-bounds" transform="matrix(1,0,0,1,0.2400000000000091,0.424780937740195)"><svg viewBox="0 0 395.52 159.1504381245196" height="159.1504381245196" width="395.52"><g><svg viewBox="0 0 395.52 159.1504381245196" height="159.1504381245196" width="395.52"><g><svg viewBox="0 0 395.52 159.1504381245196" height="159.1504381245196" width="395.52"><g id="textblocktransform"><svg viewBox="0 0 395.52 159.1504381245196" height="159.1504381245196" width="395.52" id="textblock"><g><svg viewBox="0 0 395.52 159.1504381245196" height="159.1504381245196" width="395.52"><g transform="matrix(1,0,0,1,0,0)"><svg width="395.52" viewBox="0.24 -25.56 63.53 25.56" height="159.1504381245196" data-palette-color="#ff9900"><path d="M45.02 0L20.02 0Q18.9-1.81 17.74-3.77 16.58-5.74 15.43-7.69 14.28-9.64 13.16-11.54 12.04-13.43 11.01-15.08 9.99-16.72 9.05-18.09 8.11-19.46 7.32-20.36L7.32-20.36Q6.64-21.14 5.7-21.69 4.76-22.24 3.77-22.6 2.78-22.95 1.84-23.11 0.9-23.27 0.24-23.27L0.24-23.27 0.24-25.56 39.94-25.56 39.94-23.27Q39.06-23.27 37.92-23.18 36.77-23.1 35.75-22.85 34.74-22.61 34.05-22.19 33.35-21.78 33.35-21.12L33.35-21.12Q33.35-20.68 33.78-19.6 34.2-18.53 34.92-17.05 35.64-15.58 36.6-13.79 37.55-12.01 38.61-10.17 39.67-8.33 40.76-6.52 41.85-4.71 42.85-3.17L42.85-3.17Q43.31-3.78 44.13-5.21 44.95-6.64 45.9-8.47 46.85-10.3 47.85-12.3 48.85-14.31 49.66-16.09 50.46-17.87 50.98-19.2 51.49-20.53 51.49-21.02L51.49-21.02Q51.49-21.63 50.9-22.06 50.32-22.49 49.38-22.75 48.44-23.02 47.27-23.14 46.09-23.27 44.9-23.27L44.9-23.27 44.9-25.56 63.77-25.56 63.77-23.27Q62.74-23.27 61.62-23.13 60.5-23 59.44-22.64 58.37-22.29 57.42-21.64 56.47-21 55.74-19.97L55.74-19.97Q54.98-18.9 54.16-17.5 53.34-16.11 52.49-14.48 51.64-12.84 50.73-11.05 49.83-9.25 48.89-7.4 47.95-5.54 46.97-3.66 46-1.78 45.02 0L45.02 0Z" opacity="1" transform="matrix(1,0,0,1,0,0)" fill="#ff9900" class="wordmark-text-0" data-fill-palette-color="primary" id="text-0"></path></svg></g></svg></g></svg></g></svg></g></svg></g><defs></defs></svg><rect width="395.52" height="159.1504381245196" fill="none" stroke="none" visibility="hidden"></rect></g></svg></g></svg>