<svg xmlns="http://www.w3.org/2000/svg" version="1.1" xmlns:xlink="http://www.w3.org/1999/xlink" xmlns:svgjs="http://svgjs.dev/svgjs" width="128" height="128" viewBox="0 0 128 128"><g transform="matrix(0.6058823529411764,0,0,0.6058823529411764,24.828801344352662,12.221578125)"><svg viewBox="0 0 72 96" data-background-color="#000000" preserveAspectRatio="xMidYMid meet" height="170" width="128" xmlns="http://www.w3.org/2000/svg" xmlns:xlink="http://www.w3.org/1999/xlink"><g id="tight-bounds" transform="matrix(1,0,0,1,0.36646477132306643,0.25950000000000273)"><svg viewBox="0 0 71.26707045735387 95.481" height="95.481" width="71.26707045735387"><g><svg viewBox="0 0 71.26707045735387 95.481" height="95.481" width="71.26707045735387"><g><svg viewBox="0 0 71.26707045735387 95.481" height="95.481" width="71.26707045735387"><g id="textblocktransform"><svg viewBox="0 0 71.26707045735387 95.481" height="95.481" width="71.26707045735387" id="textblock"><g><svg viewBox="0 0 71.26707045735387 95.481" height="95.481" width="71.26707045735387"><g><svg viewBox="0 0 71.26707045735387 95.481" height="95.481" width="71.26707045735387"><g><svg xmlns="http://www.w3.org/2000/svg" xmlns:xlink="http://www.w3.org/1999/xlink" version="1.1" x="0" y="0" viewBox="-330.34411366670247 256.25789535442215 74.44711366670248 99.74150493900277" enable-background="new -346 256 100 100" xml:space="preserve" height="95.481" width="71.26707045735387" class="icon-icon-0" data-fill-palette-color="accent" id="icon-0"></svg></g></svg></g></svg></g></svg></g></svg></g><g></g></svg></g><defs></defs><mask id="9fb660f7-8f40-4014-8eed-82543f2493a1"><g id="SvgjsG2203"><svg viewBox="0 0 71.26707045735387 95.481" height="95.481" width="71.26707045735387"><g><svg viewBox="0 0 71.26707045735387 95.481" height="95.481" width="71.26707045735387"><g><svg viewBox="0 0 71.26707045735387 95.481" height="95.481" width="71.26707045735387"><g id="SvgjsG2202"><svg viewBox="0 0 71.26707045735387 95.481" height="95.481" width="71.26707045735387" id="SvgjsSvg2201"><g><svg viewBox="0 0 71.26707045735387 95.481" height="95.481" width="71.26707045735387"><g><svg viewBox="0 0 71.26707045735387 95.481" height="95.481" width="71.26707045735387"><g><svg xmlns="http://www.w3.org/2000/svg" xmlns:xlink="http://www.w3.org/1999/xlink" version="1.1" x="0" y="0" viewBox="-330.34411366670247 256.25789535442215 74.44711366670248 99.74150493900277" enable-background="new -346 256 100 100" xml:space="preserve" height="95.481" width="71.26707045735387" class="icon-icon-0" data-fill-palette-color="accent" id="SvgjsSvg2200"><g fill="white"><g fill="white"><path d="M-305.12 276.475C-302.81 276.291-300.92 275.311-299.448 273.543-297.969 271.779-297.32 269.73-297.506 267.406-297.694 265.08-298.662 263.171-300.417 261.686-302.169 260.198-304.152 259.544-306.363 259.731-308.674 259.915-310.565 260.891-312.04 262.659-313.517 264.427-314.164 266.476-313.977 268.801-313.79 271.033-312.848 272.897-311.141 274.382S-307.427 276.566-305.12 276.475" fill="white"></path><path d="M-263.606 267.291L-258.38 265.231A1.667 1.667 0 1 0-259.601 262.13L-262.569 263.296-260.568 259.77A1.668 1.668 0 1 0-263.468 258.124L-265.895 262.4-268.492 257.132A1.669 1.669 0 0 0-271.485 258.604L-268.099 265.475-319.076 285.542-319.457 284.942A3.894 3.894 0 0 0-324.83 283.748 3.9 3.9 0 0 0-326.379 288.417L-329.281 289.559A1.666 1.666 0 0 0-328.669 292.778C-328.465 292.778-328.259 292.741-328.058 292.66L-324.63 291.311-315.644 305.43A3.9 3.9 0 0 0-311.952 307.211 3.89 3.89 0 0 0-308.714 304.7L-306.465 298.663-303.91 309.484-318.716 326.916A10.6 10.6 0 0 0-319.411 328.719L-323.285 349.615C-323.285 350.167-323.328 350.584-323.424 350.859-323.237 352.335-322.569 353.578-321.413 354.599-320.262 355.611-318.903 356.067-317.334 355.976-314.472 355.702-312.765 354.225-312.213 351.55L-308.474 331.901-296.577 318.754-293.806 331.483C-293.346 332.503-292.979 333.286-292.703 333.837L-281.219 353.213C-280.016 355.239-278.261 356.162-275.959 355.976-274.387 355.791-273.096 355.121-272.085 353.96-271.068 352.807-270.651 351.439-270.838 349.868-270.838 349.035-271.068 348.246-271.532 347.502L-282.248 329.446-291.244 290.086-285.232 294.951-282.183 308.925C-281.723 311.146-280.389 312.745-278.169 312.559-275.68 312.379-274.572 310.456-274.856 307.975V307.564L-278.586 291.29C-278.678 290.56-279.046 289.961-279.693 289.5L-292.714 279.25A2.2 2.2 0 0 0-293.26 278.966L-269.727 269.701C-272.597 273.886-275.984 279.78-275.984 284.338-275.984 292.274-270.333 295.579-265.777 295.579H-265.751C-261.194 295.579-255.897 292.274-255.897 284.338-255.899 278.81-260.707 271.311-263.606 267.291M-313.277 294.654L-317.252 288.408-309.865 285.501z" fill="white"></path></g></g></svg></g></svg></g></svg></g></svg></g></svg></g><g></g></svg></g><defs><mask></mask></defs></svg><rect width="71.26707045735387" height="95.481" fill="black" stroke="none" visibility="hidden"></rect></g></mask><linearGradient x1="0.054" x2="0.941" y1="0.5" y2="0.5" id="6d947df0-71ee-40f2-9a13-40dbe034a7aa"><stop stop-color="#8c8c8c" offset="0"></stop><stop stop-color="#e3e4e5" offset="0.498"></stop><stop stop-color="#8c8c8c" offset="1"></stop></linearGradient><rect width="71.26707045735387" height="95.481" fill="#000000" mask="url(#9fb660f7-8f40-4014-8eed-82543f2493a1)" data-fill-palette-color="accent"></rect></svg><rect width="71.26707045735387" height="95.481" fill="none" stroke="none" visibility="hidden"></rect></g></svg></g></svg>